<svg width="235" height="462" viewBox="0 0 235 462" fill="none" xmlns="http://www.w3.org/2000/svg">
<path fill-rule="evenodd" clip-rule="evenodd" d="M1.02351 231.116C1.02351 167.642 1.02449 104.168 1.02646 40.6952C1.02646 34.4655 0.931875 28.2318 1.10036 22.0048C1.36491 12.2621 9.41071 3.62228 19.8714 1.59547C21.7497 1.228 23.6653 1.04181 25.5865 1.04001C33.2215 1.04136 40.8554 1.03957 48.4884 1.03463C49.6205 1.03194 50.6447 1.20813 51.431 2.01643C52.0147 2.61761 52.2261 3.33177 52.2423 4.12259C52.2748 5.60201 52.3044 7.08816 52.6561 8.53664C53.9892 14.0226 59.1693 17.9458 65.3618 17.9901C74.7673 18.0587 84.1758 18.0144 93.5827 18.0157C118.406 18.017 143.229 18.017 168.052 18.0157C169.331 18.0157 170.606 18.0238 171.876 17.7817C177.835 16.6756 182.211 12.0306 182.5 6.50177C182.549 5.65177 182.539 4.79774 182.607 3.94909C182.752 2.14151 183.961 1.05615 185.96 1.05212C194.136 1.03598 202.315 0.92166 210.488 1.09381C221.274 1.32245 230.1 7.66513 233.137 17.0864C233.704 18.8516 233.99 20.682 233.984 22.5212C233.974 37.4947 233.974 52.4669 233.985 67.4378C233.985 190.797 233.99 314.16 234 437.526C234 440.632 233.826 443.699 232.537 446.631C229.068 454.512 222.745 459.21 213.568 460.726C211.96 460.995 210.333 460.995 208.708 460.995H30.9573C28.7907 460.995 26.6211 461.022 24.4559 460.954C12.8483 460.618 3.33054 453.06 1.34569 442.636C1.0575 441.117 1.02942 439.597 1.02942 438.077C1.02498 391.677 1.024 345.282 1.02646 298.891L1.02646 231.116H1.02351Z" fill="#ECF1F3" fill-opacity="0.01" stroke="#C4D1D7" stroke-opacity="0.38" stroke-width="2" stroke-linejoin="round"/>
</svg>
